<?xml version="1.0" encoding="utf-8"?>
<!-- Generator: Adobe Illustrator 27.5.0, SVG Export Plug-In . SVG Version: 6.00 Build 0)  -->
<svg version="1.1" id="Layer_1" xmlns="http://www.w3.org/2000/svg" xmlns:xlink="http://www.w3.org/1999/xlink" x="0px" y="0px"
	 viewBox="0 0 1013.5 261.9" style="enable-background:new 0 0 1013.5 261.9;" xml:space="preserve">
<style type="text/css">
	.st0{fill:#1B75BB;}
	.st1{fill:#4394D0;}
	.st2{fill:#929497;}
	.st3{fill:#718AC5;}
</style>
<g>
	<polygon class="st0" points="870.6,92.7 854.4,92.7 818.4,163.7 839.1,163.7 862.5,117.4 877.3,146.7 864.8,146.7 856.2,163.7 
		886,163.7 891.9,163.7 906.7,163.7 	"/>
	<path class="st0" d="M245.4,92.7v27.7h53.1V92.7h17v71.1h-17V136h-53.1v27.8h-17V92.7H245.4z"/>
	<rect x="327.2" y="109.6" class="st0" width="17" height="54.2"/>
	<rect x="327.2" y="92.7" class="st1" width="17" height="12.1"/>
	<path class="st0" d="M472.3,92.7l26.1,25.8l26.1-25.8H542v71.1h-17v-48.5L503.9,136h-11l-21.1-20.7v48.5h-17V92.7H472.3z"/>
	<polygon class="st0" points="603.4,92.7 587.2,92.7 551.1,163.7 571.8,163.7 595.3,117.4 610.1,146.7 597.5,146.7 588.9,163.7 
		618.7,163.7 624.6,163.7 639.4,163.7 	"/>
	<path class="st0" d="M648.5,92.7h17v27.7h0l31.5-27.7h24.6l-39.6,35.5l39.6,35.6h-24.6l-31.5-27.7h0v27.7h-17V92.7z"/>
	<path class="st0" d="M728.7,114.4c0-3.1,0.6-6,1.8-8.6c1.2-2.6,2.8-4.9,4.8-6.8c2-1.9,4.4-3.4,7.2-4.6c2.7-1.1,5.7-1.7,8.8-1.7
		h57.6v15.6h-57.6c-1.6,0-2.9,0.6-4,1.9c-1,1.3-1.5,2.7-1.5,4.2c0,1.6,0.5,2.9,1.6,4.2c1,1.2,2.3,1.8,3.9,1.8h42.1
		c3,0,5.9,0.6,8.7,1.7c2.7,1.1,5.1,2.7,7.2,4.6c2.1,2,3.7,4.3,4.9,6.9c1.2,2.6,1.8,5.5,1.8,8.5c0,3-0.6,5.9-1.8,8.6
		c-1.2,2.7-2.9,5-4.9,6.9c-2.1,1.9-4.5,3.5-7.2,4.6c-2.7,1.1-5.6,1.7-8.7,1.7h-57.6v-15.6h57.6c1.6,0,2.9-0.6,3.9-1.9
		c1-1.3,1.6-2.7,1.6-4.2c0-1.6-0.5-3-1.6-4.2c-1-1.2-2.3-1.9-3.9-1.9h-42.1c-3,0-5.9-0.6-8.7-1.7c-2.7-1.1-5.1-2.6-7.2-4.6
		c-2-1.9-3.7-4.2-4.9-6.8C729.3,120.2,728.7,117.4,728.7,114.4z"/>
	<path class="st0" d="M915.8,163.7V92.7h16.7l53.4,49.1V92.7h17v71.1h-16.3l-53.9-49.1v49.1H915.8z"/>
	<path class="st0" d="M441.3,105.6c-1.2-2.6-2.8-4.9-4.9-6.8c-2-1.9-4.4-3.4-7.1-4.5c-2.7-1.1-5.6-1.6-8.6-1.6h-64.8v39.9h17v-24.3
		h47.8c0.9,0,1.8,0.2,2.4,0.6c0.7,0.4,1.2,0.9,1.7,1.6c0.4,0.7,0.7,1.4,0.9,2c0.2,0.7,0.3,1.2,0.3,1.6v28.1c0,0.4-0.1,0.9-0.3,1.6
		c-0.2,0.7-0.5,1.4-0.9,2c-0.5,0.7-1,1.2-1.7,1.6c-0.7,0.4-1.5,0.6-2.4,0.6H373v0h-17v15.6h64.8c3,0,5.9-0.6,8.6-1.7
		c2.7-1.1,5.1-2.6,7.2-4.6c2.1-1.9,3.7-4.2,4.9-6.8c1.2-2.6,1.8-5.4,1.8-8.5v-28.1C443.1,111.1,442.5,108.3,441.3,105.6z"/>
</g>
<g>
	<path class="st2" d="M360.7,218.6c-1.3,0-2.2-1-2.2-2.3v-11.9h-16.7v11.9c0,1.3-0.9,2.3-2.2,2.3c-1.3,0-2.3-1-2.3-2.3v-27.1
		c0-1.3,0.9-2.3,2.2-2.3s2.2,1,2.2,2.3v11.1h16.7v-11.1c0-1.3,1-2.3,2.2-2.3c1.3,0,2.2,1,2.2,2.3v27.1
		C362.9,217.6,362,218.6,360.7,218.6z"/>
	<path class="st2" d="M427.3,187.8c0.5-0.6,1-0.9,1.8-0.9c1,0,2,0.8,2,2c0,0.6-0.2,0.9-0.5,1.3l-10.3,14.4v11.7
		c0,1.3-0.9,2.3-2.3,2.3s-2.3-1-2.3-2.3v-11.7l-10.3-14.4c-0.3-0.4-0.5-0.8-0.5-1.3c0-1.2,1-2,2-2c0.8,0,1.3,0.3,1.8,0.9l9.2,12.8
		L427.3,187.8z"/>
	<path class="st2" d="M484.2,218.2h-8.6c-1.3,0-2.3-1-2.3-2.3v-26.4c0-1.3,1-2.3,2.3-2.3h8.6c9.6,0,15.5,6.6,15.5,15.5
		C499.7,211.6,493.8,218.2,484.2,218.2z M484.1,191.4h-6.3v22.8h6.3c7.1,0,11.2-4.7,11.2-11.4C495.3,196.1,491.2,191.4,484.1,191.4z
		"/>
	<path class="st2" d="M545.7,218.6c-1.3,0-2.3-1-2.3-2.3v-26.8c0-1.3,0.9-2.3,2.3-2.3h12.5c7.1,0,10.5,3.8,10.5,9.1
		c0,4.1-2.2,7.2-6.4,8.4l5.2,10.6c0.1,0.3,0.2,0.6,0.2,1c0,1.1-0.8,2.2-2.2,2.2c-1.1,0-1.6-0.5-2-1.3l-5.9-12.1h-9.9v11.1
		C547.9,217.6,547,218.6,545.7,218.6z M547.9,191.4v10H559c3.4,0,5.2-2.2,5.2-5c0-2.7-1.8-5-5.2-5H547.9z"/>
	<path class="st2" d="M639.6,215.6c0.1,0.3,0.2,0.6,0.2,0.9c0,1.1-0.7,2.1-2.1,2.1c-1.1,0-1.7-0.6-2-1.3l-3.1-6.8H618l-3.1,6.8
		c-0.3,0.7-0.9,1.3-2,1.3c-1.4,0-2.1-1-2.1-2.1c0-0.3,0.1-0.6,0.2-0.9l12.3-27.4c0.4-0.9,1-1.3,2-1.3c1,0,1.6,0.4,2,1.3L639.6,215.6
		z M625.3,193.4l-5.7,13.2H631L625.3,193.4z"/>
	<path class="st2" d="M681.7,205.9v-16.7c0-1.3,0.9-2.3,2.3-2.3c1.3,0,2.2,0.9,2.2,2.3v17.1c0,5,2.9,8.4,8.6,8.4s8.6-3.4,8.6-8.4
		v-17.1c0-1.3,0.9-2.3,2.2-2.3c1.4,0,2.3,1,2.3,2.3v16.7c0,7.9-4.9,12.9-13.1,12.9S681.7,213.8,681.7,205.9z"/>
	<path class="st2" d="M753.1,216v-26.8c0-1.3,0.9-2.3,2.3-2.3c1.3,0,2.2,0.9,2.2,2.3v24.9h14.8c1.1,0,2.1,0.9,2.1,2
		c0,1.2-1,2.1-2.1,2.1h-17C754.1,218.2,753.1,217.2,753.1,216z"/>
	<path class="st2" d="M819.9,218.6c-1.3,0-2.3-1-2.3-2.3v-27.1c0-1.3,0.9-2.3,2.3-2.3c1.3,0,2.2,0.9,2.2,2.3v27.1
		C822.1,217.6,821.2,218.6,819.9,218.6z"/>
	<path class="st2" d="M893.4,191.8c0.4,0.5,0.6,1,0.6,1.6c0,1.2-0.8,2-2,2c-0.9,0-1.5-0.5-2-1.1c-2-2.2-4.7-3.5-8.1-3.5
		c-7.5,0-11.5,5.4-11.5,12s3.9,12,11.5,12c3.4,0,6.1-1.3,8.1-3.5c0.5-0.6,1.1-1.1,2-1.1c1.2,0,2,0.8,2,2c0,0.6-0.2,1.1-0.6,1.6
		c-2.3,2.9-6.6,5.1-11.7,5.1c-9.7,0-15.7-7.3-15.7-16c0-8.7,6-16,15.7-16C886.8,186.7,891.1,188.9,893.4,191.8z"/>
</g>
<path class="st3" d="M197.4,132.8C197.4,132.8,197.4,132.8,197.4,132.8L197.4,132.8C197.4,132.8,197.4,132.8,197.4,132.8z"/>
<g>
	<g>
		<path class="st1" d="M39.9,45.6c-8.6,11.6-29,50.1-29,50.1c-2.4,4.1-0.8,7.2-0.8,7.2s26.1,45.9,26.1,45.9c0.8,1.4,1.9,3.2,3.7,3.5
			c2.1,0.3,3-1.5,3.9-3c0.9-1.6,1.7-3.3,2.6-4.9c0.7-1.2,1.3-2.5,2-3.7c0.8-1.4,1.6-2.9,2.5-4.3c0.8-1.3,1.7-2.5,2.3-3.9
			c0.5-1.4,0-2.5-0.8-3.7c-0.6-0.9-1.2-1.9-1.7-2.8c-1.1-1.8-2.1-3.7-3.2-5.5c-2.3-3.9-4.6-7.8-6.8-11.7c-0.7-1.2-1.4-2.5-2.1-3.7
			l-0.1-0.1c-2-2.7-2.2-6.4-0.6-9.3l16-28.1c0.9-1.2,1.9-1.9,2.7-2.3L43.7,42.2C42,43.2,40.8,44.4,39.9,45.6z"/>
	</g>
	<g>
		<path class="st1" d="M158.5,123.3c-1.4-2.4-2.8-4.7-4.3-7.1c-1.2-2-2.3-4.2-3.5-6.2c-1-1.8-2-4-3.8-5.1c-1-0.6-2.1-0.9-3.3-0.9
			c-3.7,0-7.4,0-11.1,0c-5.2,0-10.3,0.1-15.5,0c-1.8,0-3.7,0.2-5.5-0.4c-1.9-0.7-2.7-2.3-3.7-3.9c-2.8-4.7-5.5-9.5-8.3-14.2
			c-2.4-4-4.8-8.1-7.2-12.1c-1.6-2.6-4.6-6.8,0-8.4c1.1-0.4,2.5-0.2,3.7-0.2c2.4,0,4.9,0,7.3,0c3.5,0,7.1,0,10.6,0h5.4
			c1,0,2-0.4,2.5-1.2c0.6-0.9,0.8-2.2-0.6-4l-8.9-14.9c-1-1.6-3-4.1-5-4.1c-0.1,0-56.6,0-56.6,0c-3.2,0-5.5,0.7-7.2,1.7l12.9,23.1
			c1.1-0.6,2.1-0.6,3-0.5c1.3,0.3,2.3,1.2,2.9,2.3c0.9,1.5,1.8,3.1,2.6,4.6c2.2,3.8,4.3,7.6,6.5,11.4c2.7,4.8,5.5,9.7,8.2,14.5
			c2.6,4.6,5.2,9.3,7.9,13.9c1.8,3.2,3.6,6.4,5.4,9.5c1.8,3.2,4.6,6.6,8.6,6.8c1.4,0.1,2.9,0,4.4,0c4.7,0,9.4,0,14.2,0
			c5.7,0,11.4,0,17.1,0c5.1,0,10.3,0,15.4,0C155.6,128,160.1,127.2,158.5,123.3z"/>
	</g>
	<path class="st1" d="M168.3,77.5c-2.3-4.1-5.8-4.3-5.8-4.3s-52.8-0.7-52.8-0.7c-1.6-0.1-3.8,0-4.9,1.4c-1.3,1.7-0.3,3.4,0.7,4.9
		c1,1.6,1.9,3.2,2.9,4.7c0.7,1.2,1.5,2.4,2.2,3.6c1.2,2,2.3,4.1,3.5,6.2c0.5,0.9,1,2,1.8,2.7c0.8,0.7,1.9,0.5,2.9,0.5
		c1.1,0,2.2-0.1,3.3-0.1c2.1,0,4.2,0,6.4,0c4.5,0,9.1,0,13.6,0c1.4,0,2.8,0,4.3,0l0.1,0c3.4-0.4,6.6,1.3,8.3,4.2l16.1,28
		c0.5,1.3,0.7,2.4,0.7,3.3c0,0,0,0,0-0.1l26.5,0.8c0-1.9-0.5-3.6-1.1-4.9C191.2,114.5,168.3,77.5,168.3,77.5z"/>
	<path class="st1" d="M171.5,132c-0.1,1.2-0.6,2.1-1.1,2.7c-0.9,0.9-2.2,1.4-3.5,1.3c-1.8,0-3.6-0.1-5.3-0.1
		c-4.4-0.1-8.8-0.2-13.1-0.3c-5.6-0.1-11.1-0.3-16.7-0.4c-5.3-0.1-10.6-0.3-16-0.4c-3.6-0.1-7.3-0.2-10.9-0.3
		c-3.7-0.1-8,0.6-10.2,3.9c-0.8,1.2-1.5,2.5-2.2,3.7c-2.4,4.1-4.8,8.1-7.3,12.2c-2.9,4.9-5.8,9.8-8.8,14.6c-2.2,3.7-4.4,7.3-6.6,11
		c-0.4,0.8-0.9,1.5-1.3,2.3c-4.8,6.5,0.9,7.4,0.9,7.4c2.8,0,5.5,0,8.3,0c2.4,0,4.8,0.1,7.2,0.2c2,0,4.4,0.3,6.3-0.6
		c1-0.5,1.8-1.4,2.4-2.4c1.9-3.2,3.8-6.4,5.7-9.6c2.7-4.4,5.3-8.9,8-13.3c1-1.5,1.7-3.3,3.1-4.5c1.5-1.3,3.4-1.1,5.2-1.1
		c5.5,0,11,0.2,16.5,0.2c4.7,0,9.4,0,14.1,0c3.1,0,8.2-0.4,7.2,4.4c-0.2,1.2-1.1,2.3-1.7,3.3c-1.3,2.1-2.5,4.2-3.8,6.3
		c-1.8,3-3.6,6.1-5.5,9.1l-2.8,4.7c-0.5,0.8-0.6,1.9-0.2,2.8c0.4,0.9,1.4,1.8,3.7,1.5c0,0,17.3,0.1,17.3,0.1c1.2,0,2.6-0.1,3.7-0.5
		c2-0.7,3-2.6,4-4.3c1.4-2.3,2.7-4.6,4.1-6.9c2.9-4.8,5.8-9.7,8.7-14.5c2.9-4.9,5.8-9.7,8.8-14.6c1.8-3,3.6-6,5.4-9.1
		c0.2-0.3,0.3-0.5,0.5-0.8c1.6-2.7,2.2-5,2.3-7.1L171.5,132C171.5,132,171.5,132,171.5,132z"/>
	<g>
		<path class="st0" d="M140.7,166.6c-0.8-2-2.8-1.9-4.6-1.8c-6,0.3-12,0.3-18,0.4c-2,0-3.1,0.8-3.9,2.7c-0.4,1-1,2-1.5,2.9
			c-1,1.9-2.1,3.7-3.1,5.6c-2.2,4-4.4,7.9-6.6,11.9c-0.7,1.2-1.4,2.5-2.1,3.7l0,0.1c-1.3,3.1-4.3,5.2-7.7,5.2l-32.3,0.5
			c-1.5-0.2-2.6-0.6-3.4-1.1l-13.3,22.9c1.7,1,3.4,1.3,4.9,1.5c14.4,1.5,57.9-0.6,57.9-0.6c4.7-0.1,6.6-3,6.6-3s26.2-45.8,26.2-45.8
			C140.5,170.1,141.4,168.2,140.7,166.6z"/>
	</g>
	<g>
		<path class="st0" d="M55.5,194.2c-0.4-1.2-0.2-2.6,0.5-3.7c0.9-1.5,1.8-3.1,2.7-4.6c2.2-3.8,4.4-7.6,6.5-11.4
			c2.8-4.8,5.5-9.6,8.3-14.5c2.6-4.6,5.3-9.2,7.9-13.8c1.8-3.2,3.6-6.3,5.5-9.5c1.8-3.2,3.3-7.3,1.5-10.8c-0.7-1.3-1.5-2.5-2.2-3.8
			c-2.4-4.1-4.8-8.1-7.2-12.2c-2.9-4.9-5.8-9.8-8.7-14.7c-2.2-3.7-4.3-7.3-6.5-11c-0.4-0.8-0.9-1.5-1.3-2.3c-3.5-7.3-7-2.7-7-2.7
			c-1.3,2.4-2.6,4.9-3.9,7.3c-1.1,2.1-2.4,4.1-3.6,6.2c-1,1.8-2.4,3.7-2.5,5.8c0,1.2,0.3,2.3,0.9,3.3c1.9,3.2,3.8,6.4,5.7,9.6
			c2.6,4.4,5.3,8.8,7.9,13.3c0.9,1.6,2.1,3.1,2.5,4.9c0.4,1.9-0.6,3.5-1.5,5.1c-2.6,4.8-5.4,9.6-8,14.4c-2.2,4.1-4.5,8.3-6.7,12.4
			c-1.5,2.7-3.5,7.4-7.3,4.2c-0.9-0.8-1.4-2.1-2.1-3.1c-1.2-2.1-2.5-4.2-3.7-6.3c-1.8-3-3.6-6.1-5.4-9.1l-2.8-4.7
			c-0.5-0.8-1.4-1.5-2.4-1.5c-1-0.1-2.3,0.4-3.1,2.5l-8.3,15.2c-0.8,1.7-1.8,4.3-1,6.4c0,0.1,28.8,48.7,28.8,48.7
			c1.6,2.7,3.4,4.4,5.1,5.4l13.3-22.9C56.3,195.9,55.8,195,55.5,194.2z"/>
	</g>
</g>
</svg>
