<svg id="Component_2_1" data-name="Component 2 – 1" xmlns="http://www.w3.org/2000/svg" width="213.429" height="48" viewBox="0 0 213.429 48">
  <g id="Group_54463" data-name="Group 54463" transform="translate(-2418.571 214)">
    <path id="Path_2" data-name="Path 2" d="M263,0h11.147V14.969L286.113,0h13.922L286.2,16.015l14.514,16.561-14.286-.091L274.147,18.609V32.576H263Z" transform="translate(2275.229 -206)" fill="#ee721d" fill-rule="evenodd"/>
    <rect id="Rectangle_1" data-name="Rectangle 1" width="11.147" height="32.576" transform="translate(2579.951 -206)" fill="#ee721d"/>
    <path id="Path_3" data-name="Path 3" d="M414.415,0h11.192V32.576h-11.6L400.447,14.923V32.576H389.3V0h10.874l.273.364,13.968,18.245Z" transform="translate(2206.393 -206)" fill="#ee721d" fill-rule="evenodd"/>
    <path id="Path_4" data-name="Path 4" d="M188.884,0h12.921l13.012,32.576H191.2L193.3,25.3h7.689l-5.551-15.242-7.689,22.521H176.6Z" transform="translate(2322.319 -206)" fill="#ee721d" fill-rule="evenodd"/>
  </g>
  <g id="Group_54464" data-name="Group 54464" transform="translate(-2418.571 206)">
    <path id="Path_1" data-name="Path 1" d="M47.9,47.954H60.139L74.061,16.7,87.574,47.954h14.787L81.614,0H69.284Z" transform="translate(2392.464 -206)" fill="#9d9d9c" fill-rule="evenodd"/>
    <path id="Path_5" data-name="Path 5" d="M26.4,47.954h6.825L54.654,0H47.829Z" transform="translate(2404.182 -206)" fill="#9d9d9c" fill-rule="evenodd"/>
    <path id="Path_6" data-name="Path 6" d="M14,47.954h2.593L37.977,0H35.384Z" transform="translate(2410.94 -206)" fill="#9d9d9c" fill-rule="evenodd"/>
    <path id="Path_7" data-name="Path 7" d="M6.9,47.954H8.037L29.512,0H28.375Z" transform="translate(2414.81 -206)" fill="#9d9d9c" fill-rule="evenodd"/>
    <path id="Path_8" data-name="Path 8" d="M0,47.954H1.137L22.612,0H21.475Z" transform="translate(2418.571 -206)" fill="#9d9d9c" fill-rule="evenodd"/>
    <g id="Group_2" data-name="Group 2" transform="translate(2454.013 -183.524)">
      <path id="Path_9" data-name="Path 9" d="M102.332,61.229h-.273V61a.41.41,0,0,0,.227-.045,8.493,8.493,0,0,0,1-.318,1.635,1.635,0,0,1-.091-.5.9.9,0,0,0-.091-.5h-1.274a.41.41,0,0,0-.046-.227c.091,0,.136-.046.227-.091.273-.136.591-.273.91-.409l-.136-.546a1.629,1.629,0,0,1-.182-.5,7.715,7.715,0,0,1-1,.182h-.227c0-.091-.046-.136-.091-.227.091-.045.136-.091.227-.136l.819-.546c0-.182-.137-.318-.182-.5a1.423,1.423,0,0,1-.227-.455,6.444,6.444,0,0,0-1,.318.41.41,0,0,0-.227.045c0-.091-.091-.136-.136-.227.091-.045.136-.136.227-.182.227-.227.5-.455.728-.682l-.273-.409a4,4,0,0,1-.273-.455,9.093,9.093,0,0,1-.955.455.345.345,0,0,0-.182.091c-.046-.045-.091-.136-.137-.182.046-.045.091-.136.182-.182.227-.227.455-.5.682-.773a2.744,2.744,0,0,0-.364-.364c-.136-.136-.227-.273-.364-.409l-.819.546c-.091.045-.137.091-.227.136-.045-.045-.136-.091-.182-.182,0-.045.091-.136.137-.182.182-.273.364-.591.546-.864a2.6,2.6,0,0,1-.364-.318c-.136-.136-.273-.227-.409-.364-.273.227-.5.455-.773.682-.045.045-.136.091-.182.182-.046-.045-.136-.091-.182-.136,0-.091.046-.136.091-.227a9.092,9.092,0,0,1,.455-.955,215180.287,215180.287,0,0,0-.91-.546,5.238,5.238,0,0,0-.637.773l-.182.182c-.045,0-.136-.091-.182-.091a.41.41,0,0,1,.046-.227c.091-.364.227-.682.318-1-.182-.091-.318-.136-.5-.227-.182,0-.318-.136-.5-.182a7.912,7.912,0,0,1-.5.819.454.454,0,0,1-.182.227c-.091,0-.136-.045-.227-.091a.577.577,0,0,1,.046-.273,7.554,7.554,0,0,1,.136-1,2.051,2.051,0,0,1-.5-.136c-.182,0-.318-.136-.5-.136-.182.273-.273.591-.455.91,0,.091-.046.136-.091.227h-.182V49.491a1.154,1.154,0,0,1-.546-.091h-.5c-.091.318-.227.637-.318.955a.577.577,0,0,1-.046.273h-.318V50.4a3.549,3.549,0,0,0-.182-1H89.957a7.554,7.554,0,0,1-.136,1v.273h-.5a.647.647,0,0,0-.091-.273c-.091-.318-.227-.637-.318-.955a2.348,2.348,0,0,0-.5.091,1.636,1.636,0,0,0-.5.091V50.9a.41.41,0,0,0-.227.046c0-.091-.091-.136-.136-.227a8.486,8.486,0,0,0-.455-.91,1.35,1.35,0,0,0-.5.182c-.136.045-.318.091-.455.136a6.644,6.644,0,0,0,.136,1,.577.577,0,0,0,.046.273.345.345,0,0,0-.182.091c-.046-.091-.091-.136-.136-.227-.227-.273-.364-.591-.591-.864a2.125,2.125,0,0,1-.455.227,4.208,4.208,0,0,1-.455.227c.091.364.182.682.273,1a.348.348,0,0,0,.091.227.345.345,0,0,0-.182.091c-.045-.091-.136-.136-.182-.227-.227-.227-.455-.5-.682-.728a4,4,0,0,1-.455.273,2.5,2.5,0,0,0-.409.318c.136.273.318.591.455.91,0,.091.091.136.137.227-.046,0-.137.091-.182.136-.091-.045-.136-.136-.227-.182-.273-.227-.5-.409-.773-.637-.136.136-.273.227-.409.364-.136.091-.227.227-.364.318a5.8,5.8,0,0,0,.591.864c.046.091.091.136.136.227l-.182.182c-.091,0-.136-.091-.227-.136-.318-.182-.591-.364-.91-.546a2.5,2.5,0,0,1-.318.409,2.6,2.6,0,0,1-.318.364c.227.273.455.546.682.773.045.091.136.136.182.227,0,.045-.091.136-.136.182-.091,0-.136-.091-.227-.091L79.9,55c-.091.136-.182.318-.273.455s-.182.318-.273.455a5.237,5.237,0,0,1,.773.637c.091.045.136.136.227.182,0,.045-.046.091-.091.182a.647.647,0,0,1-.273-.091l-.955-.273a2.438,2.438,0,0,0-.227.5c-.091.137-.136.318-.227.455.318.182.591.364.864.546a.952.952,0,0,1,.273.182.274.274,0,0,1-.045.182H79.4c-.318-.045-.682-.091-1-.136a1.613,1.613,0,0,1-.136.5l-.136.546a7.587,7.587,0,0,1,.91.364c.091,0,.182.091.273.136V60H78.036a1.154,1.154,0,0,1-.091.546c0,.182-.046.364-.046.5l.955.273a1.157,1.157,0,0,1,.318.091v.182H78.9a9.414,9.414,0,0,1-1,.182v1.046a6.644,6.644,0,0,1,1,.136h.318v.182a.647.647,0,0,0-.273.091,7.84,7.84,0,0,1-.955.318v.5c0,.182.091.364.091.546H79.4a.274.274,0,0,0,.046.182c-.091,0-.182.091-.273.136-.273.136-.591.273-.91.409l.136.546a1.629,1.629,0,0,1,.182.5,7.717,7.717,0,0,1,1-.182h.273c0,.091.046.137.091.227-.091.045-.136.091-.227.136-.318.182-.591.364-.864.546.091.182.136.318.227.5.091.136.136.318.227.455a7.837,7.837,0,0,0,.955-.318.647.647,0,0,0,.273-.091c0,.045.091.136.091.182-.091.046-.136.136-.227.182-.227.227-.5.455-.728.682l.273.409c.091.136.182.318.273.455.318-.136.637-.318.955-.455.091,0,.136-.091.227-.091,0,.046.091.091.137.182-.046.091-.137.136-.182.227a9.53,9.53,0,0,0-.637.773,2.5,2.5,0,0,0,.318.409,2.746,2.746,0,0,0,.364.364l.819-.546.273-.137.182.182c-.046.091-.091.136-.136.227-.182.273-.364.591-.546.864.136.136.273.227.364.318a2.942,2.942,0,0,0,.409.364c.273-.227.546-.455.773-.682.091-.045.136-.136.227-.182.046.046.137.091.182.137,0,.091-.091.182-.137.273-.136.273-.273.591-.409.91l.409.273a4,4,0,0,1,.455.273c.227-.227.455-.5.682-.773.045-.046.091-.137.182-.182a.166.166,0,0,1,.091.318c-.091.364-.182.682-.273,1,.136.091.318.136.455.227.182,0,.318.136.5.182.182-.273.364-.546.546-.864,0-.046.091-.136.136-.182a.345.345,0,0,1,.182.091.577.577,0,0,1-.046.273,7.553,7.553,0,0,1-.136,1,2.051,2.051,0,0,1,.5.137c.182.045.318.136.5.182.182-.318.273-.637.455-.955a.347.347,0,0,1,.091-.227.41.41,0,0,1,.227.045v1.274a1.067,1.067,0,0,1,.5.091h.546l.273-.955a.647.647,0,0,1,.091-.273h.273v.273a3.87,3.87,0,0,0,.182,1h1.046a9.457,9.457,0,0,1,.136-1.046V73.6h.5a.647.647,0,0,0,.091.273c.091.318.227.637.318.955.182-.045.364-.045.5-.091a1.154,1.154,0,0,0,.546-.091V73.377a.274.274,0,0,0,.182-.046c0,.091.091.137.136.227a5.662,5.662,0,0,0,.455.91c.182-.046.318-.091.5-.137.136,0,.318-.136.5-.182a6.528,6.528,0,0,1-.182-1,.577.577,0,0,0-.046-.273.345.345,0,0,0,.182-.091.8.8,0,0,0,.182.227l.546.819a1.568,1.568,0,0,0,.5-.227c.136,0,.273-.136.455-.227a7.841,7.841,0,0,1-.318-.955.647.647,0,0,0-.091-.273.345.345,0,0,0,.182-.091l.182.182c.227.227.455.5.682.728a4,4,0,0,1,.455-.273,2.5,2.5,0,0,0,.409-.318c-.136-.273-.273-.591-.455-.91,0-.046-.091-.136-.091-.227.046-.045.136-.091.182-.136l.182.182a9.531,9.531,0,0,1,.773.637,2.942,2.942,0,0,0,.409-.364c.136-.091.227-.227.364-.318-.182-.273-.364-.591-.546-.864a.8.8,0,0,0-.182-.227.628.628,0,0,0,.136-.182c.091.046.137.091.227.136.273.182.546.364.864.546.091-.136.227-.273.318-.409s.227-.273.318-.409c-.227-.273-.455-.5-.682-.773l-.182-.182c0-.046.091-.091.137-.182.091,0,.136.091.227.091.318.091.637.273.955.364l.273-.409a4,4,0,0,1,.273-.455c-.273-.227-.546-.455-.773-.637-.091-.046-.136-.136-.227-.182,0-.091.091-.136.091-.227a.348.348,0,0,1,.227.091c.318.091.637.182,1,.273.046-.182.136-.318.182-.5.091-.136.136-.318.227-.455-.273-.182-.591-.364-.864-.546-.091-.045-.137-.091-.227-.136,0-.091.046-.136.091-.227h.227c.318.046.682.091,1,.137a2.051,2.051,0,0,1,.137-.5c.046-.182.091-.318.136-.5a8.006,8.006,0,0,0-.91-.409c-.091,0-.182-.091-.227-.091v-.227h1.274v-.5a2.215,2.215,0,0,0,.046-.546,7.274,7.274,0,0,1-.955-.227.647.647,0,0,1-.273-.091v-.227a.341.341,0,0,0,.227-.046c.364-.045.682-.091,1-.136V61.32a7.554,7.554,0,0,1-1-.136Z" transform="translate(-77.9 -49.4)" fill="#1d1d1b" fill-rule="evenodd"/>
      <path id="Path_10" data-name="Path 10" d="M83.108,68.858A18.688,18.688,0,0,0,84.2,70.723q.546.682,1.046,1.228a7.389,7.389,0,0,0,.864.773,10.323,10.323,0,0,0,1.547,1.092,10.716,10.716,0,0,0,3.913,1.274,11.239,11.239,0,0,0,4.641-.409,10.767,10.767,0,0,0,7.052-7.28,10.94,10.94,0,0,0-.637-7.6,7.575,7.575,0,0,0-1.046-1.683l-.591-.773A12.416,12.416,0,0,0,98.8,55.436a10.962,10.962,0,0,0-8.827-1.319,10.943,10.943,0,0,0-3.64,1.82,12.269,12.269,0,0,0-2.593,2.912,11.011,11.011,0,0,0-1.41,4,9.573,9.573,0,0,0-.091,2.548,16.007,16.007,0,0,0,.455,2.32c.136.364.273.819.409,1.137Z" transform="translate(-80.241 -51.751)" fill="#fff" fill-rule="evenodd"/>
      <g id="Group_1" data-name="Group 1" transform="translate(2.32 2.366)">
        <path id="Path_11" data-name="Path 11" d="M100.6,82.458c.227.091,2.866.591,3.185.637.091-.273.409-1.365.455-1.683.091-.409.318-1.41.364-1.774a11.109,11.109,0,0,1-1.774-.273c-.273-.045-1.683-.364-1.774-.364-.091.591-.182,1.092-.273,1.683C100.782,81.138,100.6,82.094,100.6,82.458Z" transform="translate(-92.592 -67.899)" fill="#ee721d" fill-rule="evenodd"/>
        <path id="Path_12" data-name="Path 12" d="M105.349,74.84c0-.182.227-1.456.273-1.729l.227-1.319a.787.787,0,0,0,.046-.455h0c-.546-.091-1.137-.182-1.729-.273-.182-.045-1.592-.364-1.638-.364-.046.227-.318,1.365-.409,1.683a4.911,4.911,0,0,1-.136.864c0,.182-.182.728-.182.864A24.571,24.571,0,0,0,105.349,74.84Z" transform="translate(-93.246 -63.375)" fill="#ee721d" fill-rule="evenodd"/>
        <path id="Path_13" data-name="Path 13" d="M110.245,75.767a25.691,25.691,0,0,0,3.321.318,21.458,21.458,0,0,0,.364-2.548v-.955c-.773-.091-1.547-.091-2.366-.182h-.819s-.227,1.5-.273,1.683c-.046.227-.273,1.638-.273,1.729Z" transform="translate(-97.825 -64.301)" fill="#ee721d" fill-rule="evenodd"/>
        <path id="Path_14" data-name="Path 14" d="M94.1,71.921a5.055,5.055,0,0,0,.728.318c.409.091,2.184.637,2.457.682.091-.637.728-3.276.728-3.412-.5-.137-1.046-.273-1.547-.455-.227-.045-1.41-.455-1.5-.455a20.965,20.965,0,0,0-.864,3.321Z" transform="translate(-89.05 -62.23)" fill="#ee721d" fill-rule="evenodd"/>
        <path id="Path_15" data-name="Path 15" d="M108.4,84.012c.5.045,2.639.273,3.094.227.091-.136.227-.591.318-.773a11,11,0,0,0,.682-2.593c-.91-.045-1.592-.091-2.5-.182a5.014,5.014,0,0,0-.819-.091c-.091.682-.364,1.865-.546,2.593A4.306,4.306,0,0,0,108.4,84.012Z" transform="translate(-96.844 -68.771)" fill="#ee721d" fill-rule="evenodd"/>
        <path id="Path_16" data-name="Path 16" d="M93.457,80.2a21.594,21.594,0,0,0,2.912.91,11.122,11.122,0,0,1,.227-1.774l.227-1.729c-.682-.136-1.683-.455-2.411-.682a4.971,4.971,0,0,0-.773-.227,14.839,14.839,0,0,0-.182,3.5Z" transform="translate(-88.68 -66.645)" fill="#ee721d" fill-rule="evenodd"/>
        <path id="Path_17" data-name="Path 17" d="M118.391,76.358a27.033,27.033,0,0,0,2.775.045,10.872,10.872,0,0,0,.182-2.184,7.948,7.948,0,0,0-.091-1.319h-2.32c-.364,0-.182,0-.227.637-.091.637-.091,1-.182,1.774C118.528,75.4,118.346,76.358,118.391,76.358Z" transform="translate(-102.285 -64.574)" fill="#ee721d" fill-rule="evenodd"/>
        <path id="Path_18" data-name="Path 18" d="M116,84.643a16.458,16.458,0,0,0,2.73-.182A7.266,7.266,0,0,0,119.412,83a9.62,9.62,0,0,0,.409-1.729h-2.184a2.981,2.981,0,0,0-.637,0,23.427,23.427,0,0,1-.728,2.548A5.761,5.761,0,0,0,116,84.643Z" transform="translate(-100.986 -69.128)" fill="#ee721d" fill-rule="evenodd"/>
        <path id="Path_19" data-name="Path 19" d="M89.6,78.65c0-.546-.046-1.092,0-1.683.045-.455.091-.864.136-1.319v-.5a3.824,3.824,0,0,0-.455-.182,13.1,13.1,0,0,1-1.41-.591c-.182-.045-.591-.227-.728-.273a10.713,10.713,0,0,0-.136,3.367,13.315,13.315,0,0,0,2.548,1.183Z" transform="translate(-85.143 -65.228)" fill="#ee721d" fill-rule="evenodd"/>
        <path id="Path_20" data-name="Path 20" d="M87.7,69.53c.227.136,2.32,1,2.548,1.046h0v-.091c.045,0,.091-.364.091-.364a1.328,1.328,0,0,0,.091-.409c.182-.637.273-1.046.455-1.683a8.618,8.618,0,0,0,.273-.819c-.045,0-.955-.364-1.137-.455-.409-.136-.728-.318-1.137-.455A12.241,12.241,0,0,0,87.7,69.53Z" transform="translate(-85.562 -60.977)" fill="#ee721d" fill-rule="evenodd"/>
        <path id="Path_21" data-name="Path 21" d="M103.6,66.784a23.516,23.516,0,0,0,2.457.5c.046,0,.819.136.819.136h.091c.045-.136.273-2.5.273-2.775-.182-.045-.5-.045-.728-.091a5.566,5.566,0,0,0-.773-.136,4.8,4.8,0,0,1-.864-.227c-.091-.045-.091,0-.182,0a1.329,1.329,0,0,0-.409-.091C104.237,64.236,103.6,66.648,103.6,66.784Z" transform="translate(-94.227 -59.778)" fill="#ee721d" fill-rule="evenodd"/>
        <path id="Path_22" data-name="Path 22" d="M96.3,64.684a30.7,30.7,0,0,0,3,.864,13.8,13.8,0,0,1,.546-2.047c0-.136.182-.5.182-.637a2.631,2.631,0,0,0-.637-.227,1.687,1.687,0,0,1-.637-.182L97.574,62A14.35,14.35,0,0,0,96.3,64.684Z" transform="translate(-90.249 -58.633)" fill="#ee721d" fill-rule="evenodd"/>
        <path id="Path_23" data-name="Path 23" d="M111.7,68.175a21.154,21.154,0,0,0,3.094.273V66.81c-.046-.227-.046-.364-.091-.682,0-.182-.091-.364-.091-.546-.5-.046-.955-.046-1.41-.091a3.444,3.444,0,0,1-.682-.045c-.091,0-.182-.046-.318-.046s-.136,0-.182.182c-.046.819-.182,1.638-.273,2.457v.136Z" transform="translate(-98.642 -60.486)" fill="#ee721d" fill-rule="evenodd"/>
        <path id="Path_24" data-name="Path 24" d="M100.4,90.266a16.82,16.82,0,0,0,2.184.364,10.725,10.725,0,0,0,.546-1.274,8.467,8.467,0,0,0,.455-1.41c-.728-.045-2.957-.546-3.094-.546-.091.91-.091,1.865-.091,2.866Z" transform="translate(-92.483 -72.477)" fill="#ee721d" fill-rule="evenodd"/>
        <path id="Path_25" data-name="Path 25" d="M106,91.478c.318.046,2.229.227,2.366.182a6.144,6.144,0,0,0,.91-1.228,10.4,10.4,0,0,0,.728-1.41,27.392,27.392,0,0,1-2.775-.227c-.273,0-.273-.046-.318.137a13.609,13.609,0,0,1-.682,1.911c0,.182-.227.546-.227.637Z" transform="translate(-95.536 -73.234)" fill="#ee721d" fill-rule="evenodd"/>
        <path id="Path_26" data-name="Path 26" d="M96.321,88.976V86.11a4.944,4.944,0,0,0-.637-.227l-1.456-.455A4.472,4.472,0,0,0,93.5,85.2a8.809,8.809,0,0,0,.546,2.684c.091.318.136.455.318.546C94.683,88.521,96.048,88.931,96.321,88.976Z" transform="translate(-88.723 -71.278)" fill="#ee721d" fill-rule="evenodd"/>
        <path id="Path_27" data-name="Path 27" d="M90.7,62.548c.182.136,1.638.682,2.047.864.227.091.182.091.455-.682.182-.409.455-.91.637-1.319a2.281,2.281,0,0,0,.364-.637L92.611,60a3.7,3.7,0,0,0-.455.409A11.893,11.893,0,0,0,90.7,62.548Z" transform="translate(-87.197 -57.543)" fill="#ee721d" fill-rule="evenodd"/>
        <path id="Path_28" data-name="Path 28" d="M105.4,60.457a18.8,18.8,0,0,0,2.866.546,17.6,17.6,0,0,0,0-2.684c-.091-.045-.364-.045-.5-.091a1.548,1.548,0,0,0-.455-.046A3.58,3.58,0,0,0,106.4,58a13.79,13.79,0,0,0-1,2.457Z" transform="translate(-95.209 -56.453)" fill="#ee721d" fill-rule="evenodd"/>
        <path id="Path_29" data-name="Path 29" d="M118.546,65.691c0,.136.182,1.183.227,1.456V68.6a22.062,22.062,0,0,0,2.457,0,9.345,9.345,0,0,0-.318-1.547,7.853,7.853,0,0,0-.5-1.456,1.548,1.548,0,0,0-.455.046H119.5a7.373,7.373,0,0,1-1,.045Z" transform="translate(-102.348 -60.595)" fill="#ee721d" fill-rule="evenodd"/>
        <path id="Path_30" data-name="Path 30" d="M90.439,86.731a1.731,1.731,0,0,0-.227-.682c-.091-.5-.227-1.137-.318-1.592a2.8,2.8,0,0,0-.091-.864,17.235,17.235,0,0,1-1.911-.819A3.43,3.43,0,0,0,87.3,82.5a7.576,7.576,0,0,0,.364,1.456,12.077,12.077,0,0,0,.5,1.365c.091.091.273.546.318.591a5.923,5.923,0,0,0,.773.364A10.206,10.206,0,0,0,90.439,86.731Z" transform="translate(-85.344 -69.806)" fill="#ee721d" fill-rule="evenodd"/>
        <path id="Path_31" data-name="Path 31" d="M113.747,89.191a13.867,13.867,0,0,1-1.319,2.366c-.091.091-.227.182-.227.318h.819c.318,0,.591-.045.864-.045.318.045.409-.091.591-.273l.364-.318c.091-.091.046-.091.227-.227l.455-.5c.046-.045,0,0,.046-.091,0-.045.091-.136.182-.227a9.11,9.11,0,0,0,.728-1.092c-.409,0-.91.091-1.319.091h-1.41Z" transform="translate(-98.915 -73.403)" fill="#ee721d" fill-rule="evenodd"/>
        <path id="Path_32" data-name="Path 32" d="M99.6,58.947a23.538,23.538,0,0,0,2.32.819,13.212,13.212,0,0,1,.728-1.865,5.1,5.1,0,0,0,.227-.591l-1.137-.318c-.091-.045-.136-.091-.227-.091a.493.493,0,0,0-.273.046,8.389,8.389,0,0,0-1.046,1.137A3.647,3.647,0,0,0,99.6,58.947Z" transform="translate(-92.047 -55.854)" fill="#ee721d" fill-rule="evenodd"/>
        <path id="Path_33" data-name="Path 33" d="M112.4,61.484a24.073,24.073,0,0,0,2.457.182,9.231,9.231,0,0,0-1.046-2.775L112.4,58.8v2.684Z" transform="translate(-99.024 -56.889)" fill="#ee721d" fill-rule="evenodd"/>
        <path id="Path_34" data-name="Path 34" d="M83.9,67.694a6.87,6.87,0,0,0,1.41.728c.045-.091.091-.318.136-.409a6.9,6.9,0,0,1,.409-1.274c.091-.227.182-.5.318-.773a3.054,3.054,0,0,1,.364-.773c-.318-.091-1.092-.591-1.228-.591a4.431,4.431,0,0,0-.455.682,9.489,9.489,0,0,0-.955,2.411Z" transform="translate(-83.491 -60.05)" fill="#ee721d" fill-rule="evenodd"/>
        <path id="Path_35" data-name="Path 35" d="M83.045,74.429a6,6,0,0,0,0,.91,15.681,15.681,0,0,0,1.456.91,8.4,8.4,0,0,1,.091-2.821c0-.182.091-.364.091-.546-.136-.046-.864-.409-1.046-.5-.136-.091-.227-.182-.364-.182A8.8,8.8,0,0,0,83,74.429Z" transform="translate(-83 -64.192)" fill="#ee721d" fill-rule="evenodd"/>
        <path id="Path_36" data-name="Path 36" d="M125.346,72.691c0,.182.091.637.091.864,0,.546,0,1.319-.046,1.82,0,.273-.091.591-.091.819a7.119,7.119,0,0,0,1.365-.091,11.279,11.279,0,0,0-.136-3.5l-1.183.091Z" transform="translate(-106.055 -64.41)" fill="#ee721d" fill-rule="evenodd"/>
        <path id="Path_37" data-name="Path 37" d="M85.757,84.277l-.318-.773c-.091-.227-.182-.546-.273-.819a6.772,6.772,0,0,1-.409-1.774l-1.092-.637A1.9,1.9,0,0,0,83.3,80a9.079,9.079,0,0,0,.955,3.276q0,.137.182.228a14.036,14.036,0,0,0,1.319.773Z" transform="translate(-83.163 -68.444)" fill="#ee721d" fill-rule="evenodd"/>
        <path id="Path_38" data-name="Path 38" d="M124,81.091a11.929,11.929,0,0,1-.864,2.821.869.869,0,0,0-.137.364,10.835,10.835,0,0,0,1.183-.227c.273-.091.227-.045.318-.318a9.47,9.47,0,0,0,.864-2.73L124,81.091Z" transform="translate(-104.801 -68.989)" fill="#ee721d" fill-rule="evenodd"/>
        <path id="Path_39" data-name="Path 39" d="M119.284,61.684v-.091l-.227-.409a12.363,12.363,0,0,0-1.228-1.911c-.091-.046-.182-.182-.273-.273H116.6l.364.955a7.513,7.513,0,0,1,.5,1.638c0,.227-.046.182.5.182a5.052,5.052,0,0,0,1.365-.091Z" transform="translate(-101.313 -56.998)" fill="#ee721d" fill-rule="evenodd"/>
        <path id="Path_40" data-name="Path 40" d="M95.5,57.383a5.9,5.9,0,0,0,1.5.773,5.685,5.685,0,0,0,.409-.546A10.556,10.556,0,0,1,98.5,56.337c0-.091.227-.227.273-.273-.182-.136-.455-.136-.682-.318l-.227-.045a7.9,7.9,0,0,0-.864.455A10.875,10.875,0,0,0,95.5,57.383Z" transform="translate(-89.813 -55.2)" fill="#ee721d" fill-rule="evenodd"/>
        <path id="Path_41" data-name="Path 41" d="M87.5,61.108a3.983,3.983,0,0,0,1.183.546,13.177,13.177,0,0,1,.864-1.319c.182-.227.318-.409.5-.637.091-.091.455-.546.5-.591,0-.046,0-.046-.091-.091-.637-.364-.455-.409-.773-.182a9.442,9.442,0,0,0-1.547,1.456A2.667,2.667,0,0,0,87.5,61.108Z" transform="translate(-85.453 -56.832)" fill="#ee721d" fill-rule="evenodd"/>
        <path id="Path_42" data-name="Path 42" d="M117.8,91.457l1.092-.136a1.515,1.515,0,0,0,.273-.136,6.961,6.961,0,0,0,.819-.819,6.783,6.783,0,0,0,.682-.91,4.373,4.373,0,0,0,.637-.955,1.009,1.009,0,0,0-.318.045,1,1,0,0,1-.364.046l-.318.091c-.364.045-.364,0-.5.273a1.415,1.415,0,0,1-.182.273c-.182.136,0,.091-.227.364-.136.091-.046.091-.182.227l-.227.364c-.091.045-.136.136-.227.182-.045.091-.091.136-.136.227l-.409.409c-.091.091,0,0-.182.227-.091.091-.136.046-.227.227Z" transform="translate(-101.967 -73.076)" fill="#ee721d" fill-rule="evenodd"/>
        <path id="Path_43" data-name="Path 43" d="M123.6,65.391a5.978,5.978,0,0,0,.227.682c.091.227.136.5.227.773a5.846,5.846,0,0,1,.318,1.547h1.137a8.622,8.622,0,0,0-.5-1.638,8.148,8.148,0,0,0-.546-1.092c0-.136-.136-.227-.182-.364Z" transform="translate(-105.128 -60.432)" fill="#ee721d" fill-rule="evenodd"/>
        <path id="Path_44" data-name="Path 44" d="M104.1,96.71c.273.045.682.091,1,.136.591.046.5.046.819-.227a6.611,6.611,0,0,0,1.137-1.092,10.4,10.4,0,0,0-1.137-.091c-.364-.046-.773-.091-1.137-.136A13.932,13.932,0,0,1,104.1,96.71Z" transform="translate(-94.5 -76.782)" fill="#ee721d" fill-rule="evenodd"/>
        <path id="Path_45" data-name="Path 45" d="M100.591,95.947c.136,0,1.046.227,1.183.227a8.274,8.274,0,0,0,.728-1.41,8.4,8.4,0,0,1-1.046-.182c-.318-.045-.682-.136-.955-.182l.091,1.547Z" transform="translate(-92.538 -76.292)" fill="#ee721d" fill-rule="evenodd"/>
        <path id="Path_46" data-name="Path 46" d="M97.547,95.147,97.456,93.6c-.364-.045-1.956-.5-1.956-.5.046.091.273.546.318.682.182.318.409.637.591.955.091.136.091.227.273.273C96.91,95.011,97.365,95.147,97.547,95.147Z" transform="translate(-89.813 -75.583)" fill="#ee721d" fill-rule="evenodd"/>
        <path id="Path_47" data-name="Path 47" d="M93.375,93.748l-.5-.819a3.284,3.284,0,0,1-.409-.91c-.091-.182,0-.136-.409-.273a2.985,2.985,0,0,1-.955-.364c-.091-.046-.136-.091-.227-.091-.136,0-.182-.091-.273-.091,0,.091,0,.136.136.182v.091l.364.5a4.594,4.594,0,0,0,.591.728c.273.227.409.409.682.637a1.212,1.212,0,0,0,.409.273,2.4,2.4,0,0,0,.546.136Z" transform="translate(-87.142 -74.548)" fill="#ee721d" fill-rule="evenodd"/>
        <path id="Path_48" data-name="Path 48" d="M108.6,97.165c1-.046.728.182,1.82-.455a11.83,11.83,0,0,0,1.365-.91h-1.82c-.227.273-.91.91-1.183,1.183C108.782,97.074,108.645,97.074,108.6,97.165Z" transform="translate(-96.953 -77.055)" fill="#ee721d" fill-rule="evenodd"/>
        <path id="Path_49" data-name="Path 49" d="M89.485,92.039a3.308,3.308,0,0,0-.364-.409,14.028,14.028,0,0,1-1.365-1.865c-.091-.182-.182-.182-.455-.318l-1-.546a3.688,3.688,0,0,0,.637.91,7.4,7.4,0,0,0,1.5,1.638,2.028,2.028,0,0,0,1.046.591Z" transform="translate(-84.799 -73.294)" fill="#ee721d" fill-rule="evenodd"/>
        <path id="Path_50" data-name="Path 50" d="M107.9,55.992a13.934,13.934,0,0,0,1.683.318,5.3,5.3,0,0,0-.227-1.274l-.728-.136A9.111,9.111,0,0,0,107.9,55.992Z" transform="translate(-96.571 -54.764)" fill="#ee721d" fill-rule="evenodd"/>
        <path id="Path_51" data-name="Path 51" d="M104.2,55.328a.529.529,0,0,0,.136.091.344.344,0,0,1,.182.045,5.1,5.1,0,0,0,1.046.273c.136-.318.637-.955.637-1.046a2.371,2.371,0,0,0-.637-.091c-.318,0-.273.045-.546.182C104.7,54.964,104.473,55.146,104.2,55.328Z" transform="translate(-94.554 -54.6)" fill="#ee721d" fill-rule="evenodd"/>
        <path id="Path_52" data-name="Path 52" d="M112.5,96.956a3.682,3.682,0,0,0,1.683-.546,11.207,11.207,0,0,0,1.228-.773.713.713,0,0,0,.182-.136c-.182,0-.409.046-.546.046-.773.091-.409-.046-.819.273-.273.227-.773.546-1.046.728-.091,0-.227.136-.318.227C112.727,96.774,112.591,96.91,112.5,96.956Z" transform="translate(-99.078 -76.891)" fill="#ee721d" fill-rule="evenodd"/>
        <path id="Path_53" data-name="Path 53" d="M113.356,56.774a8.535,8.535,0,0,0-.546-.819.6.6,0,0,0-.409-.318,2.051,2.051,0,0,0-.5-.136c0,.136.091.364.091.546,0,.091.091.546.091.591A5.756,5.756,0,0,0,113.356,56.774Z" transform="translate(-98.751 -55.091)" fill="#ee721d" fill-rule="evenodd"/>
        <path id="Path_54" data-name="Path 54" d="M93.5,56.783a3.356,3.356,0,0,0,.591.364l.955-.819c.227-.182.5-.364.773-.546a.654.654,0,0,0,.137-.091h.091V55.6A12.779,12.779,0,0,0,93.5,56.783Z" transform="translate(-88.723 -55.145)" fill="#ee721d" fill-rule="evenodd"/>
        <path id="Path_55" data-name="Path 55" d="M121.719,62.184h.591c0-.136-.136-.273-.182-.364-.091-.091-.136-.182-.227-.273a3.208,3.208,0,0,0-.318-.409c0-.045-.091-.091-.136-.136-.227-.273-.5-.5-.773-.773A1.206,1.206,0,0,0,120.4,60a16.763,16.763,0,0,1,1.137,1.865c.091.136.091.273.182.318Z" transform="translate(-103.384 -57.543)" fill="#ee721d" fill-rule="evenodd"/>
        <path id="Path_56" data-name="Path 56" d="M101.6,54.873c0,.091.318.182.409.227.546.182.273.182,1-.318l.091-.091.091-.091A3.558,3.558,0,0,0,101.6,54.873Z" transform="translate(-93.137 -54.6)" fill="#ee721d" fill-rule="evenodd"/>
        <path id="Path_57" data-name="Path 57" d="M115.537,57.319h.728A6.787,6.787,0,0,0,114.9,56.5c0,.091.091.136.136.227l.273.455C115.355,57.273,115.355,57.319,115.537,57.319Z" transform="translate(-100.386 -55.636)" fill="#ee721d" fill-rule="evenodd"/>
        <path id="Path_58" data-name="Path 58" d="M103.2,99.464a4.945,4.945,0,0,0,.819.046.857.857,0,0,0,.364-.091c.091-.046.182-.136.273-.182l-1.228-.136C103.336,99.146,103.245,99.373,103.2,99.464Z" transform="translate(-94.009 -78.854)" fill="#ee721d" fill-rule="evenodd"/>
        <path id="Path_59" data-name="Path 59" d="M101.582,99.146a4.2,4.2,0,0,0,.227-.364l-.91-.182c0,.455,0,.409.182.455C101.218,99.1,101.4,99.1,101.582,99.146Z" transform="translate(-92.756 -78.581)" fill="#ee721d" fill-rule="evenodd"/>
        <path id="Path_60" data-name="Path 60" d="M98.5,98.1l.091.409a2.578,2.578,0,0,0,.682.136C99.273,98.1,99,98.191,98.5,98.1Z" transform="translate(-91.448 -78.309)" fill="#ee721d" fill-rule="evenodd"/>
      </g>
    </g>
  </g>
</svg>
